<svg width="73" height="84" viewBox="0 0 73 84" fill="none" xmlns="http://www.w3.org/2000/svg">
<g clip-path="url(#clip0_39_581)">
<path d="M53.7985 31.5815L49.2045 36.1748V4.23344C49.2045 1.89658 47.3076 0 44.9704 0H28.034C25.6968 0 23.7999 1.89658 23.7999 4.23344V36.3314L19.2059 31.7381C17.5504 30.0829 14.8702 30.0829 13.2189 31.7381L1.24067 43.7103C-0.414859 45.3656 -0.414859 48.0454 1.24067 49.6964L18.4607 66.9138L34.9271 83.3777C35.7528 84.2032 37.095 84.2032 37.9206 83.3777L54.387 66.9138L71.7637 49.5398C73.4193 47.8845 73.4193 45.2047 71.7637 43.5537L59.7897 31.5815C58.1342 29.9262 55.454 29.9262 53.8027 31.5815H53.7985Z" fill="#FEFCFB"/>
</g>
<defs>
<clipPath id="clip0_39_581">
<rect width="73" height="84" fill="white"/>
</clipPath>
</defs>
</svg>
