<svg width="36" height="36" viewBox="0 0 36 36" fill="none" xmlns="http://www.w3.org/2000/svg">
<g clip-path="url(#clip0_205_65)">
<path d="M10.5451 0.124585C8.62993 0.214945 7.32169 0.521665 6.17869 0.969505C4.99537 1.43067 3.99241 2.04915 2.99449 3.05103C1.99549 4.05363 1.38205 5.05838 0.924128 6.24278C0.480968 7.38867 0.180368 8.69762 0.0961284 10.6139C0.0118884 12.5341 -0.00719163 13.1465 0.00216837 18.0346C0.0115284 22.9219 0.0331284 23.5354 0.124568 25.456C0.216008 27.3708 0.521648 28.6783 0.969488 29.8221C1.43137 31.0054 2.04913 32.008 3.05137 33.0063C4.05325 34.0045 5.05873 34.6176 6.24385 35.0759C7.38865 35.5187 8.69797 35.82 10.6139 35.9039C12.5338 35.9885 13.1468 36.0072 18.0335 35.9979C22.9223 35.9885 23.5354 35.9669 25.4552 35.8758C27.3704 35.7844 28.6772 35.4777 29.8217 35.0309C31.005 34.5679 32.008 33.9513 33.0059 32.949C34.0038 31.9471 34.6172 30.9417 35.0752 29.7565C35.5183 28.6117 35.82 27.3024 35.9032 25.3876C35.987 23.4666 36.0068 22.8528 35.9975 17.9658C35.9881 13.0781 35.9662 12.4657 35.8751 10.5462C35.784 8.62995 35.4773 7.32279 35.0302 6.17871C34.5676 4.99539 33.9505 3.99351 32.9486 2.99451C31.9468 1.99659 30.9413 1.38207 29.7562 0.925225C28.6106 0.482065 27.302 0.180025 25.3861 0.0972255C23.4666 0.0115455 22.8539 -0.00717454 17.9654 0.00218546C13.0781 0.0115455 12.4654 0.0324255 10.5455 0.124585M10.7554 32.6643C9.00037 32.5879 8.04745 32.2963 7.41241 32.0519C6.57145 31.7265 5.97133 31.3362 5.33953 30.7095C4.70917 30.0802 4.31785 29.4819 3.98953 28.6427C3.74293 28.0077 3.44593 27.0558 3.36385 25.3008C3.27457 23.4036 3.25405 22.8345 3.24541 18.0281C3.23605 13.2232 3.25369 12.6537 3.33649 10.755C3.41173 9.00146 3.70513 8.0471 3.94885 7.41279C4.27429 6.57074 4.66309 5.9717 5.29129 5.33991C5.92057 4.70847 6.51889 4.31823 7.35877 3.98991C7.99345 3.74187 8.94493 3.44739 10.6992 3.36423C12.5975 3.27423 13.1663 3.25515 17.9712 3.24579C22.7772 3.23643 23.3467 3.25335 25.2454 3.33687C26.9989 3.41319 27.9533 3.70371 28.5872 3.94923C29.4289 4.27467 30.029 4.66239 30.6601 5.29167C31.2912 5.92095 31.6825 6.51819 32.0108 7.35987C32.2585 7.99274 32.5534 8.94567 32.6362 10.6992C32.7265 12.5975 32.747 13.1667 32.7557 17.9719C32.765 22.7783 32.7474 23.3475 32.6642 25.245C32.5879 27 32.2967 27.9533 32.0519 28.5891C31.7264 29.4293 31.3373 30.0294 30.7087 30.6612C30.0802 31.2905 29.4818 31.6829 28.6412 32.0112C28.008 32.2585 27.0551 32.5537 25.3019 32.6369C23.4036 32.7262 22.8348 32.7467 18.0281 32.7553C13.2232 32.7647 12.6544 32.7467 10.7557 32.6643M25.429 8.3783C25.4311 9.57026 26.4006 10.5354 27.5926 10.5333C28.7852 10.5311 29.7504 9.56234 29.7486 8.37002C29.7461 7.17806 28.777 6.21218 27.5843 6.21434C26.3916 6.21651 25.4264 7.18599 25.4286 8.37794M8.75773 18.0177C8.76745 23.1225 12.9136 27.2517 18.0173 27.2416C23.1214 27.2315 27.2527 23.0868 27.243 17.982C27.2329 12.879 23.0864 8.74766 17.9816 8.75738C12.8779 8.76746 8.74765 12.9139 8.75773 18.0177ZM11.9999 18.0112C11.9941 14.6981 14.6758 12.0064 17.9881 12.0006C21.3012 11.9941 23.9933 14.6747 23.9998 17.9885C24.0062 21.3023 21.3246 23.9933 18.0108 23.9998C14.6981 24.0063 12.006 21.3253 11.9999 18.0115" fill="#FEFCFB"/>
</g>
<defs>
<clipPath id="clip0_205_65">
<rect width="36" height="36" fill="white"/>
</clipPath>
</defs>
</svg>
