<svg width="36" height="36" viewBox="0 0 36 36" fill="none" xmlns="http://www.w3.org/2000/svg">
<g clip-path="url(#clip0_205_66)">
<path d="M28.5 0H7.5C3.36 0 0 3.36 0 7.5V28.5C0 32.64 3.36 36 7.5 36H28.5C32.64 36 36 32.64 36 28.5V7.5C36 3.36 32.64 0 28.5 0ZM12 28.5H7.5V12H12V28.5ZM9.75 10.095C8.295 10.095 7.125 8.91 7.125 7.455C7.125 6 8.295 4.815 9.75 4.815C11.205 4.815 12.375 6 12.375 7.455C12.375 8.91 11.205 10.095 9.75 10.095ZM30 28.5H25.5V20.1C25.5 15.045 19.5 15.435 19.5 20.1V28.5H15V12H19.5V14.655C21.6 10.77 30 10.485 30 18.375V28.515V28.5Z" fill="#FEFCFB"/>
</g>
<defs>
<clipPath id="clip0_205_66">
<rect width="36" height="36" fill="white"/>
</clipPath>
</defs>
</svg>
