<svg width="263" height="221" viewBox="0 0 263 221" fill="none" xmlns="http://www.w3.org/2000/svg">
<path d="M87.8072 221.003C86.272 221.003 84.7232 220.937 83.1585 220.801C71.7679 219.827 63.4726 215.57 63.391 215.527L63.0917 215.371L63.3502 215.153C70.1034 209.449 77.4189 205.411 85.0928 203.156C91.236 201.351 97.6195 200.674 104.069 201.147C115.051 201.953 122.519 205.873 122.594 205.912L122.863 206.054L122.648 206.27C116.652 212.291 109.806 216.526 102.298 218.854C97.6966 220.28 92.8392 220.998 87.8095 220.998L87.8072 221.003ZM63.9058 215.278C65.4977 216.043 73.133 219.492 83.2129 220.353C89.8459 220.919 96.2226 220.269 102.171 218.421C109.511 216.143 116.217 212.024 122.104 206.174C120.666 205.472 113.729 202.307 104.014 201.598C97.6218 201.131 91.2949 201.802 85.2062 203.593C77.6956 205.803 70.532 209.732 63.9058 215.276V215.278Z" fill="#FF2B00"/>
<path d="M120.188 202.538L119.648 202.338C115.274 200.719 106.307 198.178 95.4063 199.333L95.2634 199.349L95.1886 199.227C87.8073 187.164 87.0884 174.815 87.0816 174.693L87.0635 174.355L87.3832 174.466C95.6353 177.349 102.76 181.534 108.561 186.905C113.221 191.219 117.047 196.306 119.929 202.026L120.188 202.54V202.538ZM100.951 198.588C108.981 198.588 115.516 200.382 119.262 201.716C116.435 196.253 112.734 191.382 108.253 187.236C102.574 181.98 95.6127 177.868 87.5578 175.008C87.7302 177.062 88.9298 188.06 95.4993 198.867C97.3769 198.672 99.2002 198.588 100.951 198.588Z" fill="#FF2B00"/>
<path d="M64.9422 202.352C64.5589 202.352 64.1779 202.347 63.7947 202.336C57.7989 202.18 51.7827 200.799 45.914 198.233C35.927 193.865 29.7431 187.481 29.6796 187.417L29.446 187.173L29.7612 187.048C37.6119 183.964 45.4581 182.558 53.0821 182.87C59.1845 183.122 65.1576 184.465 70.8359 186.867C80.5053 190.957 86.0476 196.786 86.1042 196.845L86.3129 197.067L86.0385 197.202C79.1447 200.622 72.0536 202.35 64.9422 202.35V202.352ZM30.251 187.345C31.4778 188.547 37.3035 193.976 46.1135 197.825C51.9256 200.366 57.8828 201.732 63.8196 201.886C71.142 202.076 78.4531 200.411 85.5577 196.938C84.4534 195.842 79.1674 190.882 70.6431 187.279C65.017 184.902 59.0983 183.57 53.0526 183.325C45.5987 183.022 37.9317 184.374 30.2533 187.347L30.251 187.345Z" fill="#FF2B00"/>
<path d="M84.9749 193.092L84.5282 192.73C81.0768 189.929 73.7612 184.89 63.5657 182.596L63.4251 182.565L63.3933 182.424C60.4317 169.269 63.5747 157.897 63.6065 157.784L63.6995 157.46L63.9648 157.668C70.532 162.8 75.6819 168.76 79.2717 175.386C82.1562 180.708 84.0475 186.473 84.8956 192.522L84.9749 193.092ZM63.806 182.186C73.5957 184.419 80.7366 189.152 84.3649 192.017C83.4873 186.229 81.6414 180.71 78.8749 175.601C75.3645 169.122 70.3461 163.282 63.9602 158.239C63.4772 160.186 61.2027 170.454 63.8083 182.186H63.806Z" fill="#FF2B00"/>
<path d="M49.8348 179.58C45.4378 179.58 41.1677 178.95 37.07 177.691C31.5345 175.991 26.3007 173.149 21.5114 169.242C13.3613 162.594 9.27036 155.055 9.22954 154.98L9.0708 154.684L9.40642 154.65C17.5066 153.816 25.1646 154.543 32.1718 156.81C37.7798 158.624 42.9841 161.423 47.6397 165.128C55.5675 171.437 59.2049 178.291 59.2412 178.359L59.3818 178.629L59.0825 178.685C55.9485 179.283 52.8599 179.582 49.8325 179.582L49.8348 179.58ZM9.801 155.064C10.6423 156.52 14.6448 163.058 21.8152 168.903C26.557 172.77 31.7386 175.583 37.2174 177.263C43.9683 179.335 51.1932 179.684 58.6947 178.298C57.9395 176.976 54.318 171.011 47.3472 165.467C42.7347 161.799 37.5802 159.029 32.0266 157.236C25.1827 155.023 17.7084 154.294 9.80326 155.064H9.801Z" fill="#FF2B00"/>
<path d="M59.1663 174.6L58.833 174.131C56.3521 170.635 50.8643 164.056 41.984 159.282L41.8571 159.215L41.8639 159.072C42.5306 146.076 48.4061 136.316 48.4651 136.218L48.642 135.931L48.8415 136.202C53.6128 142.674 56.851 149.55 58.4679 156.642C59.765 162.337 60.0258 168.189 59.2434 174.031L59.1663 174.602V174.6ZM42.3242 158.952C50.8326 163.556 56.2342 169.794 58.8647 173.402C59.5496 167.802 59.2684 162.201 58.0234 156.744C56.4451 149.817 53.3021 143.091 48.6783 136.753C47.71 138.462 42.9501 147.403 42.3219 158.954L42.3242 158.952Z" fill="#FF2B00"/>
<path d="M37.9475 154.799L37.6437 154.763C30.3825 153.875 23.8879 151.468 18.3388 147.605C13.9009 144.514 10.0549 140.492 6.90965 135.65C1.56017 127.412 0.0748338 119.538 0.0612277 119.459L0 119.126L0.331083 119.196C7.77591 120.763 14.384 123.592 19.9693 127.607C24.4412 130.82 28.2713 134.792 31.3554 139.416C36.6051 147.29 37.884 154.425 37.8954 154.498L37.9475 154.799ZM0.575994 119.712C0.920683 121.291 2.61692 128.214 7.30197 135.419C10.4155 140.209 14.2184 144.185 18.6087 147.24C24.0148 151.002 30.3326 153.368 37.3897 154.276C37.0881 152.845 35.5619 146.538 30.9676 139.654C27.913 135.08 24.1214 131.148 19.6949 127.969C14.2456 124.056 7.81673 121.28 0.575994 119.715V119.712Z" fill="#FF2B00"/>
<path d="M38.8818 151.178L38.7072 150.63C37.4985 146.814 34.4984 139.4 27.9651 132.627L27.8654 132.523L27.9152 132.389C32.2216 121.015 40.2401 114.006 40.3218 113.938L40.578 113.718L40.6846 114.038C43.0793 121.155 43.9954 128.198 43.4081 134.966C42.9364 140.403 41.4942 145.684 39.129 150.66L38.8818 151.18V151.178ZM28.3937 132.416C34.6231 138.918 37.6459 145.981 38.9634 149.946C41.1631 145.173 42.5056 140.123 42.9591 134.928C43.5328 128.324 42.662 121.456 40.3671 114.511C38.9793 115.795 32.2352 122.371 28.3937 132.419V132.416Z" fill="#FF2B00"/>
<path d="M26.8472 126.481L26.5615 126.375C20.4523 124.094 15.3251 120.652 11.3203 116.148C8.11836 112.545 5.6239 108.256 3.90952 103.405C0.991006 95.1489 1.3493 88.0134 1.35384 87.9409L1.37198 87.6035L1.67812 87.7484C15.5541 94.3382 21.6655 104.431 24.3482 111.739C27.2554 119.658 26.8722 126.112 26.8676 126.178L26.8472 126.481ZM1.79604 88.3078C1.76656 89.816 1.81191 96.1159 4.34265 103.27C6.03889 108.064 8.5016 112.298 11.665 115.856C15.5541 120.229 20.5181 123.587 26.4232 125.84C26.4594 124.472 26.4322 118.734 23.9106 111.877C21.2755 104.71 15.3024 94.8296 1.7915 88.3078H1.79604Z" fill="#FF2B00"/>
<path d="M28.3711 123.569L28.3303 122.994C28.0808 119.438 27.0286 112.396 22.7858 105.172L22.7132 105.047L22.7948 104.93C28.904 95.9666 37.3194 91.5621 37.4033 91.5168L37.7026 91.3628L37.7321 91.6979C38.3217 98.367 37.6459 104.662 35.7207 110.407C34.1741 115.023 31.8225 119.3 28.7316 123.121L28.3688 123.569H28.3711ZM23.2506 105.068C27.2645 111.956 28.4164 118.666 28.7385 122.389C31.6207 118.727 33.8226 114.651 35.2921 110.267C37.1629 104.68 37.8432 98.5663 37.3103 92.0874C35.7706 92.9525 28.6319 97.2347 23.2484 105.07L23.2506 105.068Z" fill="#FF2B00"/>
<path d="M22.5182 99.0686L22.2733 98.8875C11.9076 91.2356 9.22269 81.2355 8.79637 74.1905C8.33376 66.5658 10.3497 60.6668 10.3701 60.6079L10.4813 60.2886L10.7352 60.5128C20.7902 69.3648 23.4887 79.2948 23.9808 86.068C24.516 93.4073 22.6429 98.729 22.6225 98.7833L22.5204 99.0709L22.5182 99.0686ZM10.6922 61.0834C10.2862 62.4127 8.85079 67.6574 9.24764 74.1815C9.66943 81.0656 12.2795 90.819 22.2891 98.3372C22.6633 97.1347 23.9854 92.3588 23.5228 86.0816C23.0375 79.4578 20.4092 69.7702 10.6899 61.0857L10.6922 61.0834Z" fill="#FF2B00"/>
<path d="M24.4367 97.0127L24.5568 96.4488C25.2009 93.4121 26.0104 87.2616 24.1917 80.1986L24.1555 80.0604L24.2666 79.9699C31.5459 73.9168 39.6619 72.2388 39.7436 72.2229L40.0746 72.1572L40.0112 72.4878C37.4986 85.4953 30.412 92.8256 24.9106 96.6843L24.4389 97.015L24.4367 97.0127ZM24.6657 80.2257C26.3574 86.9084 25.7338 92.7667 25.1147 95.9778C30.4256 92.1191 37.0269 85.0243 39.4964 72.7415C37.9135 73.1219 30.988 75.0128 24.6657 80.2257Z" fill="#FF2B00"/>
<path d="M25.0874 74.6479L24.906 74.4033C18.1664 65.2546 18.5134 56.124 19.9942 50.0755C21.5952 43.5287 24.8334 39.0789 24.8675 39.0359L25.067 38.7642L25.2439 39.0518C31.4075 49.1312 31.09 58.2029 29.7362 64.0408C28.2713 70.3657 25.3006 74.3671 25.2711 74.4056L25.0874 74.6502V74.6479ZM25.0353 39.5839C24.3141 40.6505 21.7789 44.6655 20.4296 50.1978C18.9919 56.0923 18.6472 64.9625 25.0852 73.8802C25.7428 72.9155 28.0626 69.2606 29.2985 63.9186C30.6138 58.2255 30.929 49.4052 25.0375 39.5862L25.0353 39.5839Z" fill="#FF2B00"/>
<path d="M27.1828 73.4165L27.464 72.9137C28.7974 70.5246 31.081 65.5608 31.3916 59.1431L31.3984 59.0005L31.53 58.9461C39.2447 55.7395 46.5262 56.4393 46.5988 56.4461L46.9344 56.48L46.7757 56.7767C41.2606 67.0848 33.3759 71.4191 27.7293 73.2398L27.1805 73.4165H27.1828ZM31.8361 59.3084C31.5164 65.3253 29.4936 70.0695 28.1352 72.6284C35.8681 69.9857 41.9477 64.6867 46.211 56.8695C44.7053 56.7767 38.4487 56.5978 31.8361 59.3084Z" fill="#FF2B00"/>
<path d="M34.5596 53.9913L34.4167 53.7218C29.4097 44.3172 30.9767 35.8932 33.1718 30.4809C35.5483 24.6249 39.1608 20.9359 39.197 20.8997L39.4351 20.6597L39.5667 20.9699C43.9116 31.158 42.3809 39.5345 40.3309 44.7656C38.1085 50.436 34.8091 53.7445 34.775 53.7784L34.5573 53.9935L34.5596 53.9913ZM39.2855 21.4681C38.451 22.383 35.5778 25.7481 33.5868 30.6666C31.4529 35.9317 29.9267 44.0998 34.6707 53.2304C35.4304 52.4039 38.0564 49.3377 39.9182 44.5822C41.9115 39.487 43.4013 31.3641 39.2877 21.4704L39.2855 21.4681Z" fill="#FF2B00"/>
<path d="M36.6391 53.1307L36.9906 52.6733C38.553 50.6397 41.3446 46.3484 42.5056 40.4425L42.5328 40.3021L42.6712 40.2659C50.2657 38.3388 56.9281 39.976 56.9939 39.9942L57.3205 40.0779L57.1186 40.3497C50.599 49.1655 42.6916 52.1139 37.206 53.0356L36.6368 53.1307H36.6391ZM42.9229 40.6712C41.8117 46.1831 39.3059 50.2932 37.6959 52.4898C45.2019 51.0858 51.5401 47.0074 56.5472 40.361C55.1253 40.0644 49.3835 39.068 42.9206 40.6735L42.9229 40.6712Z" fill="#FF2B00"/>
<path d="M46.1974 36.2462L46.1135 35.9541C43.5805 27.179 46.3879 20.3877 49.1907 16.2368C52.2227 11.744 55.9076 9.28921 55.9439 9.2643L56.2251 9.07861L56.2909 9.40923C58.13 18.7232 55.3611 25.4783 52.7147 29.5024C49.8461 33.8662 46.4899 36.0605 46.4559 36.0809L46.1997 36.2462H46.1974ZM55.9099 9.83723C55.0006 10.4985 52.0526 12.7947 49.5558 16.5017C46.846 20.5235 44.1315 27.0703 46.4627 35.5238C47.2904 34.9282 49.9844 32.8335 52.3451 29.2375C54.9076 25.3334 57.5857 18.8161 55.9099 9.83949V9.83723Z" fill="#FF2B00"/>
<path d="M49.633 35.9133C49.2792 35.9133 48.9368 35.9065 48.6035 35.8929L48.0275 35.8703L48.4651 35.4966C50.1319 34.0723 53.2273 30.9721 55.241 26.2347L55.2977 26.1034L55.4405 26.0966C62.1552 25.8203 67.4502 28.3747 67.5047 28.3996L67.8085 28.5491L67.5568 28.7733C61.0145 34.5795 54.3657 35.9156 49.633 35.9156V35.9133ZM49.1953 35.4581C55.6809 35.585 61.6608 33.3 66.9922 28.6646C65.7812 28.1392 61.2096 26.3479 55.6038 26.5427C53.7171 30.9087 50.9369 33.8888 49.1953 35.4581Z" fill="#FF2B00"/>
<path d="M59.6131 24.131L59.5541 23.8321C57.9531 15.5779 61.0848 9.57914 63.9965 6.00345C67.1463 2.13336 70.727 0.183604 70.7633 0.163223L71.0604 0.00244141L71.0967 0.337592C72.0173 9.02886 68.9219 14.9936 66.1644 18.4697C63.1756 22.2356 59.9147 23.9725 59.8829 23.9906L59.6131 24.1333V24.131ZM70.6794 0.733885C69.7655 1.28417 66.906 3.14108 64.3389 6.3001C61.5315 9.75577 58.511 15.519 59.9419 23.4335C60.7741 22.9399 63.3865 21.2437 65.822 18.1708C68.4843 14.8102 71.4663 9.07188 70.6794 0.73162V0.733885Z" fill="#FF2B00"/>
<path d="M64.8696 24.192C63.7765 24.192 62.7674 24.115 61.8581 23.995L61.2866 23.9202L61.756 23.5851C63.3978 22.4166 66.4864 19.8327 68.7201 15.6615L68.7881 15.5347L68.931 15.5415C75.1082 15.8404 79.757 18.6144 79.8046 18.6416L80.0926 18.816L79.8205 19.0175C74.3145 23.0891 69.0036 24.1897 64.8673 24.1897L64.8696 24.192ZM62.484 23.6145C68.3822 24.2463 74.0242 22.6498 79.2671 18.8635C78.1673 18.268 74.1535 16.2842 69.0512 16.0034C66.9763 19.8192 64.2119 22.3124 62.484 23.6145Z" fill="#FF2B00"/>
<path d="M175.193 221.002C170.163 221.002 165.306 220.284 160.704 218.858C153.196 216.53 146.35 212.295 140.354 206.274L140.139 206.059L140.409 205.916C140.483 205.877 147.951 201.958 158.933 201.151C165.383 200.678 171.766 201.353 177.909 203.16C185.586 205.415 192.901 209.453 199.652 215.157L199.911 215.375L199.611 215.531C199.53 215.574 191.234 219.831 179.844 220.805C178.279 220.939 176.728 221.007 175.195 221.007L175.193 221.002ZM140.896 206.174C146.785 212.026 153.493 216.147 160.838 218.423C166.789 220.269 173.17 220.916 179.803 220.348C189.881 219.485 197.502 216.041 199.094 215.275C192.468 209.732 185.304 205.8 177.794 203.593C171.707 201.801 165.378 201.129 158.986 201.597C149.271 202.306 142.334 205.47 140.896 206.174Z" fill="#FF2B00"/>
<path d="M142.812 202.537L143.071 202.023C145.953 196.303 149.779 191.217 154.439 186.903C160.24 181.534 167.367 177.349 175.619 174.464L175.939 174.353L175.921 174.69C175.914 174.813 175.195 187.161 167.814 199.224L167.739 199.347L167.596 199.331C156.695 198.176 147.729 200.717 143.354 202.336L142.815 202.535L142.812 202.537ZM175.442 175.007C167.387 177.865 160.428 181.98 154.747 187.236C150.266 191.382 146.563 196.253 143.738 201.715C148.302 200.092 157.004 197.782 167.501 198.867C174.07 188.06 175.27 177.061 175.442 175.007Z" fill="#FF2B00"/>
<path d="M198.058 202.352C190.946 202.352 183.855 200.622 176.962 197.204L176.687 197.069L176.896 196.847C176.95 196.788 182.492 190.961 192.162 186.869C197.84 184.466 203.813 183.121 209.916 182.872C217.542 182.56 225.386 183.966 233.237 187.05L233.552 187.175L233.318 187.419C233.257 187.483 227.073 193.869 217.084 198.235C211.215 200.801 205.199 202.182 199.203 202.338C198.82 202.347 198.439 202.354 198.056 202.354L198.058 202.352ZM177.442 196.935C184.551 200.411 191.867 202.075 199.192 201.883C205.129 201.727 211.088 200.359 216.902 197.816C225.706 193.966 231.522 188.545 232.749 187.342C225.071 184.371 217.401 183.017 209.95 183.321C203.904 183.567 197.985 184.897 192.359 187.274C183.833 190.877 178.549 195.837 177.445 196.933L177.442 196.935Z" fill="#FF2B00"/>
<path d="M178.025 193.092L178.104 192.522C178.953 186.473 180.844 180.708 183.728 175.386C187.318 168.76 192.468 162.8 199.035 157.668L199.301 157.46L199.394 157.784C199.425 157.897 202.566 169.269 199.607 182.424L199.575 182.565L199.434 182.596C189.239 184.89 181.923 189.929 178.472 192.73L178.025 193.092ZM199.044 158.239C192.656 163.282 187.64 169.122 184.13 175.601C181.361 180.71 179.515 186.229 178.64 192.017C182.268 189.152 189.407 184.417 199.199 182.186C201.804 170.454 199.53 160.186 199.047 158.239H199.044Z" fill="#FF2B00"/>
<path d="M213.165 179.58C210.138 179.58 207.052 179.281 203.915 178.683L203.616 178.626L203.757 178.357C203.793 178.289 207.43 171.434 215.358 165.125C220.014 161.42 225.218 158.621 230.826 156.808C237.833 154.541 245.493 153.814 253.591 154.647L253.927 154.681L253.768 154.978C253.727 155.053 249.636 162.591 241.486 169.24C236.697 173.146 231.463 175.99 225.928 177.689C221.83 178.948 217.56 179.577 213.163 179.577L213.165 179.58ZM204.308 178.298C211.809 179.682 219.034 179.335 225.785 177.263C231.261 175.583 236.443 172.77 241.187 168.902C248.357 163.058 252.358 156.52 253.201 155.064C245.298 154.292 237.822 155.023 230.978 157.236C225.424 159.031 220.27 161.801 215.657 165.467C208.687 171.011 205.063 176.975 204.31 178.298H204.308Z" fill="#FF2B00"/>
<path d="M203.834 174.6L203.757 174.029C202.972 168.187 203.233 162.338 204.532 156.64C206.149 149.55 209.387 142.672 214.158 136.2L214.358 135.929L214.535 136.216C214.594 136.314 220.469 146.072 221.136 159.07L221.143 159.213L221.016 159.281C212.136 164.052 206.648 170.633 204.167 174.129L203.834 174.598V174.6ZM214.319 136.751C209.698 143.089 206.555 149.815 204.974 156.742C203.729 162.2 203.448 167.802 204.133 173.4C206.766 169.795 212.167 163.556 220.674 158.95C220.045 147.399 215.288 138.458 214.317 136.748L214.319 136.751Z" fill="#FF2B00"/>
<path d="M225.052 154.799L225.105 154.498C225.116 154.428 226.395 147.29 231.645 139.416C234.729 134.792 238.559 130.82 243.031 127.607C248.618 123.592 255.226 120.763 262.669 119.196L263 119.126L262.939 119.459C262.925 119.538 261.44 127.412 256.088 135.65C252.943 140.492 249.099 144.514 244.659 147.605C239.11 151.468 232.615 153.875 225.354 154.763L225.05 154.799H225.052ZM262.424 119.712C255.181 121.28 248.745 124.058 243.296 127.976C238.869 131.157 235.076 135.091 232.023 139.67C227.436 146.552 225.914 152.845 225.613 154.276C232.67 153.368 238.987 151.004 244.394 147.24C248.784 144.185 252.587 140.209 255.7 135.419C260.383 128.214 262.082 121.293 262.426 119.712H262.424Z" fill="#FF2B00"/>
<path d="M224.118 151.178L223.871 150.657C221.504 145.682 220.064 140.403 219.592 134.964C219.002 128.193 219.918 121.153 222.315 114.035L222.422 113.716L222.678 113.935C222.758 114.006 230.776 121.014 235.085 132.387L235.135 132.52L235.035 132.625C228.502 139.398 225.501 146.812 224.293 150.628L224.118 151.176V151.178ZM222.633 114.511C220.338 121.458 219.467 128.324 220.041 134.928C220.492 140.123 221.837 145.172 224.037 149.946C225.354 145.981 228.377 138.918 234.606 132.416C230.765 122.369 224.021 115.792 222.633 114.508V114.511Z" fill="#FF2B00"/>
<path d="M236.153 126.481L236.132 126.178C236.128 126.114 235.745 119.658 238.652 111.739C241.334 104.431 247.444 94.3382 261.322 87.7484L261.628 87.6035L261.646 87.9409C261.651 88.0111 262.007 95.1489 259.09 103.405C257.376 108.258 254.882 112.545 251.68 116.148C247.677 120.652 242.548 124.094 236.439 126.375L236.153 126.481ZM261.204 88.3078C247.695 94.8296 241.72 104.71 239.085 111.877C236.566 118.734 236.538 124.472 236.572 125.84C242.477 123.587 247.444 120.229 251.33 115.856C254.494 112.298 256.957 108.064 258.653 103.27C261.184 96.1159 261.231 89.816 261.199 88.3078H261.204Z" fill="#FF2B00"/>
<path d="M234.629 123.569L234.266 123.12C229.422 117.135 223.928 106.825 225.266 91.6999L225.295 91.3647L225.594 91.5187C225.678 91.5618 234.094 95.9685 240.203 104.932L240.285 105.049L240.212 105.174C235.969 112.398 234.917 119.44 234.667 122.996L234.627 123.571L234.629 123.569ZM225.69 92.0849C225.159 98.5637 225.837 104.678 227.708 110.265C229.177 114.649 231.379 118.725 234.262 122.387C234.584 118.666 235.736 111.954 239.749 105.065C234.366 97.2321 227.229 92.9476 225.687 92.0826L225.69 92.0849Z" fill="#FF2B00"/>
<path d="M240.482 99.069L240.38 98.7814C240.362 98.7293 238.489 93.4054 239.021 86.066C239.516 79.2951 242.212 69.3629 252.267 60.5108L252.521 60.2866L252.632 60.6059C252.653 60.6648 254.668 66.5639 254.206 74.1886C253.78 81.2313 251.092 91.2337 240.729 98.8855L240.484 99.0667L240.482 99.069ZM252.308 61.0837C242.582 69.775 239.958 79.4717 239.475 86.1C239.019 92.3705 240.337 97.1351 240.711 98.3353C250.72 90.817 253.331 81.0637 253.752 74.1795C254.151 67.6554 252.716 62.4108 252.308 61.0815V61.0837Z" fill="#FF2B00"/>
<path d="M238.563 97.0125L238.092 96.6819C232.59 92.8231 225.504 85.4929 222.991 72.4854L222.928 72.1548L223.259 72.2205C223.34 72.2363 231.456 73.9143 238.736 79.9674L238.847 80.058L238.811 80.1961C236.992 87.2615 237.799 93.4097 238.445 96.4464L238.566 97.0103L238.563 97.0125ZM223.504 72.7413C224.905 79.6979 228.545 89.2022 237.885 95.9776C237.266 92.7665 236.643 86.9082 238.334 80.2256C232.012 75.0126 225.086 73.1217 223.504 72.7413Z" fill="#FF2B00"/>
<path d="M237.913 74.6482L237.729 74.4036C237.699 74.3629 234.729 70.3637 233.264 64.0389C231.912 58.2032 231.592 49.1292 237.756 39.0498L237.933 38.7622L238.132 39.0339C238.164 39.077 241.405 43.5268 243.006 50.0735C244.484 56.1221 244.833 65.2527 238.094 74.4014L237.913 74.6459V74.6482ZM237.965 39.5842C232.073 49.4055 232.386 58.2258 233.701 63.9166C234.935 69.2586 237.255 72.9158 237.915 73.8783C244.36 64.956 244.008 56.0791 242.566 50.18C241.214 44.65 238.684 40.6486 237.965 39.582V39.5842Z" fill="#FF2B00"/>
<path d="M235.817 73.4165L235.268 73.2398C229.624 71.4191 221.737 67.0848 216.222 56.7767L216.063 56.48L216.399 56.4461C216.472 56.4393 223.753 55.7395 231.468 58.9461L231.599 59.0005L231.606 59.1431C231.917 65.5608 234.2 70.5246 235.534 72.9137L235.815 73.4165H235.817ZM216.789 56.8695C221.052 64.6867 227.132 69.9857 234.865 72.6284C233.504 70.0695 231.481 65.3276 231.164 59.3084C224.547 56.5955 218.297 56.7767 216.789 56.8695Z" fill="#FF2B00"/>
<path d="M228.44 53.9911L228.223 53.776C228.189 53.7443 224.889 50.4335 222.667 44.7631C220.617 39.5321 219.086 31.1556 223.431 20.9675L223.563 20.6572L223.801 20.8973C223.837 20.9335 227.449 24.6224 229.826 30.4785C232.023 35.8907 233.59 44.3148 228.581 53.7194L228.438 53.9888L228.44 53.9911ZM223.715 21.4679C219.601 31.3617 221.091 39.4868 223.084 44.5797C224.944 49.3375 227.572 52.4037 228.332 53.228C233.08 44.0906 231.547 35.9179 229.409 30.6483C227.415 25.7366 224.549 22.3805 223.717 21.4657L223.715 21.4679Z" fill="#FF2B00"/>
<path d="M226.361 53.1306L225.792 53.0355C220.306 52.1138 212.399 49.1631 205.877 40.3496L205.675 40.0778L206.002 39.9941C206.067 39.9782 212.73 38.3387 220.324 40.2658L220.463 40.302L220.49 40.4424C221.651 46.3483 224.442 50.6419 226.005 52.6732L226.356 53.1306H226.361ZM206.451 40.3586C211.458 47.005 217.796 51.0835 225.302 52.4875C223.692 50.2931 221.188 46.1808 220.075 40.6689C213.614 39.0633 207.87 40.062 206.448 40.3564L206.451 40.3586Z" fill="#FF2B00"/>
<path d="M216.803 36.2462L216.546 36.0809C216.512 36.0582 213.156 33.8662 210.288 29.5024C207.641 25.4761 204.872 18.721 206.711 9.40923L206.777 9.07861L207.058 9.2643C207.095 9.28921 210.78 11.744 213.811 16.2368C216.614 20.3877 219.422 27.179 216.889 35.9541L216.805 36.2462H216.803ZM207.09 9.83723C205.416 18.8138 208.095 25.3311 210.655 29.2352C213.016 32.8335 215.71 34.926 216.537 35.5215C218.868 27.068 216.154 20.5213 213.444 16.4995C210.947 12.7924 207.999 10.4962 207.09 9.83497V9.83723Z" fill="#FF2B00"/>
<path d="M213.367 35.9133C208.634 35.9133 201.985 34.5772 195.443 28.771L195.191 28.5468L195.495 28.3973C195.548 28.3724 200.847 25.8203 207.559 26.0943L207.702 26.1011L207.759 26.2324C209.775 30.9698 212.87 34.0677 214.535 35.4944L214.973 35.868L214.397 35.8907C214.065 35.9043 213.721 35.9111 213.367 35.9111V35.9133ZM196.008 28.6646C201.339 33.3 207.319 35.585 213.805 35.4581C212.063 33.8888 209.283 30.9087 207.396 26.5427C201.79 26.3479 197.219 28.1392 196.008 28.6646Z" fill="#FF2B00"/>
<path d="M203.387 24.1308L203.117 23.9882C203.085 23.97 199.824 22.2354 196.836 18.4672C194.078 14.9935 190.983 9.02642 191.903 0.33515L191.94 0L192.237 0.160782C192.273 0.178898 195.854 2.13092 199.003 6.001C201.915 9.57896 205.047 15.5754 203.446 23.8296L203.387 24.1286V24.1308ZM192.321 0.733708C191.534 9.08303 194.523 14.8259 197.192 18.1887C199.627 21.2549 202.228 22.942 203.058 23.4356C204.489 15.512 201.464 9.74654 198.65 6.2886C196.083 3.13184 193.232 1.28172 192.318 0.733708H192.321Z" fill="#FF2B00"/>
<path d="M198.133 24.1921C193.999 24.1921 188.685 23.0916 183.18 19.02L182.907 18.8184L183.195 18.644C183.241 18.6169 187.89 15.8406 194.069 15.5439L194.212 15.5371L194.28 15.6639C196.514 19.8375 199.602 22.419 201.244 23.5875L201.713 23.9227L201.142 23.9974C200.233 24.1174 199.223 24.1944 198.13 24.1944L198.133 24.1921ZM183.733 18.8637C188.976 22.65 194.618 24.2488 200.516 23.6147C198.788 22.3126 196.024 19.8193 193.949 16.0036C188.84 16.2844 184.833 18.2681 183.733 18.8637Z" fill="#FF2B00"/>
</svg>
