<svg width="252" height="301" viewBox="0 0 252 301" fill="none" xmlns="http://www.w3.org/2000/svg">
<g clip-path="url(#clip0_1_170)">
<path d="M249.24 24.34C246.93 21.15 243.35 19.32 239.41 19.32H203.65C203.95 12.91 204.08 7.82999 204.13 4.56999C204.15 3.35999 203.69 2.21999 202.84 1.34999C201.98 0.46999 200.83 -0.0100098 199.6 -0.0100098H50.9302C49.6802 -0.0100098 48.5202 0.47999 47.6602 1.35999C46.8102 2.23999 46.3602 3.39999 46.3902 4.62999C46.4902 7.87999 46.6902 12.94 47.0702 19.32H12.1402C8.20022 19.32 4.62022 21.15 2.31022 24.34C0.0102191 27.52 -0.609781 31.48 0.620219 35.21C5.62022 50.44 14.6202 73.26 29.0702 95.47C52.7902 131.94 73.0802 145.56 73.2902 145.69L73.3402 145.61C80.3902 160.55 89.2802 172.96 100.49 180.38C103.49 182.36 105.27 185.68 105.27 189.26V215.38C105.27 215.73 105.13 216.07 104.88 216.32L90.1502 240.62H49.8802C48.3202 240.62 47.0502 241.89 47.0502 243.44V298.15C47.0502 299.71 48.3202 300.98 49.8702 300.98H201.63C203.19 300.98 204.46 299.71 204.46 298.15V243.44C204.46 241.88 203.19 240.62 201.63 240.62H161.36L146.7 216.41L146.62 216.31C146.37 216.06 146.23 215.72 146.23 215.37V189.08C146.23 185.48 148.03 182.15 151.05 180.17C162.41 172.73 171.34 160.42 178.36 145.62C179.8 144.64 199.53 130.74 222.49 95.45C236.94 73.24 245.93 50.42 250.94 35.19C252.16 31.46 251.55 27.5 249.24 24.32V24.34ZM29.9002 94.93C15.5102 72.81 6.55022 50.07 1.57022 34.9C0.450219 31.48 1.02022 27.85 3.13022 24.93C5.25022 22 8.54022 20.33 12.1502 20.33H47.1402C48.9602 49.52 54.6802 104.87 72.5602 143.95C67.8002 140.39 50.1302 126.02 29.9002 94.93ZM150.5 179.35C147.2 181.52 145.23 185.16 145.23 189.1V215.39C145.23 215.99 145.46 216.56 145.87 216.99L160.79 241.63H201.62C202.63 241.63 203.45 242.45 203.45 243.45V298.16C203.45 299.17 202.63 299.99 201.62 299.99H49.8602C48.8602 299.99 48.0402 299.17 48.0402 298.16V243.45C48.0402 242.45 48.8602 241.63 49.8702 241.63H90.7002L105.62 216.99C106.04 216.55 106.26 215.99 106.26 215.39V189.27C106.26 185.35 104.3 181.71 101.03 179.55C54.0602 148.45 48.1102 28.37 47.3902 4.60999C47.3602 3.64999 47.7102 2.74999 48.3702 2.06999C49.0402 1.37999 49.9502 0.99999 50.9302 0.99999H199.6C200.56 0.99999 201.46 1.37999 202.13 2.05999C202.79 2.72999 203.15 3.61999 203.13 4.55999C202.76 28.24 198.47 147.93 150.49 179.35H150.5ZM249.99 34.9C245.01 50.08 236.05 72.81 221.66 94.93C201.75 125.53 184.31 139.95 179.22 143.78C197.22 104.45 202.25 48.72 203.64 19.71V20.32H239.41C243.02 20.32 246.31 22 248.43 24.92C250.54 27.84 251.11 31.47 249.99 34.89V34.9Z" fill="#FF2B00"/>
</g>
<defs>
<clipPath id="clip0_1_170">
<rect width="251.56" height="301" fill="white"/>
</clipPath>
</defs>
</svg>
